<?xml version="1.0" encoding="UTF-8"?>
<svg width="19px" height="33px" viewBox="0 0 19 33" version="1.1" xmlns="http://www.w3.org/2000/svg" xmlns:xlink="http://www.w3.org/1999/xlink">
    <!-- Generator: Sketch 42 (36781) - http://www.bohemiancoding.com/sketch -->
    <title>$</title>
    <desc>Created with Sketch.</desc>
    <defs></defs>
    <g id="Dashboard" stroke="none" stroke-width="1" fill="none" fill-rule="evenodd" opacity="0.75">
        <g id="Desktop-HD" transform="translate(-36.000000, -272.000000)" fill="#FFFFFF">
            <path d="M54.304,293.692 C54.304,295.61201 53.5780073,297.297993 52.126,298.75 C50.6739927,300.202007 48.748012,301.023999 46.348,301.216 L46.348,304.132 L44.26,304.132 L44.26,301.216 C41.8119878,301.047999 39.8500074,300.328006 38.374,299.056 C36.8979926,297.783994 36.16,296.068011 36.16,293.908 L41.56,293.908 C41.7040007,295.732009 42.6039917,296.799998 44.26,297.112 L44.26,290.236 C41.8119878,289.587997 40.1560043,289.024002 39.292,288.544 C37.2039896,287.391994 36.16,285.556013 36.16,283.036 C36.16,280.94799 36.9219924,279.226007 38.446,277.87 C39.9700076,276.513993 41.9079882,275.740001 44.26,275.548 L44.26,272.632 L46.348,272.632 L46.348,275.548 C48.6760116,275.692001 50.5299931,276.357994 51.91,277.546 C53.2900069,278.734006 54.0399994,280.455989 54.16,282.712 L48.868,282.712 C48.7959996,281.991996 48.5380022,281.368003 48.094,280.84 C47.6499978,280.311997 47.0680036,279.940001 46.348,279.724 L46.348,286.528 C48.7960122,287.152003 50.4759954,287.727997 51.388,288.256 C53.3320097,289.408006 54.304,291.219988 54.304,293.692 Z M41.416,282.712 C41.416,284.200007 42.3639905,285.267997 44.26,285.916 L44.26,279.652 C42.3639905,279.940001 41.416,280.959991 41.416,282.712 Z M49.084,293.98 C49.084,292.587993 48.1720091,291.544003 46.348,290.848 L46.348,297.112 C47.2120043,296.943999 47.8839976,296.578003 48.364,296.014 C48.8440024,295.449997 49.084,294.772004 49.084,293.98 Z" id="$"></path>
        </g>
    </g>
</svg>