<?xml version="1.0" encoding="UTF-8"?>
<svg width="32px" height="32px" viewBox="0 0 32 32" version="1.1" xmlns="http://www.w3.org/2000/svg" xmlns:xlink="http://www.w3.org/1999/xlink">
    <!-- Generator: Sketch 42 (36781) - http://www.bohemiancoding.com/sketch -->
    <title>123</title>
    <desc>Created with Sketch.</desc>
    <defs></defs>
    <g id="Dashboard" stroke="none" stroke-width="1" fill="none" fill-rule="evenodd" opacity="0.75">
        <g id="Desktop-HD" transform="translate(-28.000000, -800.000000)" fill="#FFFFFF">
            <path d="M44,820 C46.206,820 48,818.205 48,816 C48,813.795 46.206,812 44,812 C41.795,812 40,813.795 40,816 C40,818.205 41.795,820 44,820 L44,820 Z M44,814 C45.103,814 46,814.9 46,816 C46,817.1 45.103,818 44,818 C42.8975,818 42,817.1 42,816 C42,814.9 42.8975,814 44,814 L44,814 Z M30,814 L33,814 C33.4305,814 33.8125,813.725 33.9495,813.315 L34.9495,810.315 C35.0685,809.955 34.975,809.56 34.707,809.295 L32.4145,807 L35,804.415 L37.293,806.705 C37.5605,806.975 37.957,807.07 38.3165,806.95 L41.3165,805.95 C41.7245,805.81 42,805.43 42,805 L42,802 L46,802 L46,805 C46,805.43 46.2755,805.81 46.684,805.95 L49.684,806.95 C50.044,807.07 50.4395,806.975 50.707,806.705 L53,804.415 L55.586,807 L53.293,809.295 C53.0255,809.56 52.9315,809.955 53.0515,810.315 L54.0515,813.315 C54.1875,813.725 54.5695,814 55,814 L58,814 L58,818 L55,818 C54.5695,818 54.1875,818.275 54.0515,818.685 L53.0515,821.685 C52.9315,822.045 53.0255,822.44 53.293,822.705 L55.586,825 L53,827.585 L50.707,825.295 C50.4395,825.025 50.043,824.93 49.684,825.05 L46.684,826.05 C46.2755,826.19 46,826.57 46,827 L46,830 L42,830 L42,827 C42,826.57 41.7245,826.19 41.3165,826.05 L38.3165,825.05 C37.958,824.93 37.561,825.025 37.293,825.295 L35,827.585 L32.4145,825 L34.707,822.705 C34.975,822.44 35.0685,822.045 34.9495,821.685 L33.9495,818.685 C33.8125,818.275 33.4305,818 33,818 L30,818 L30,814 L30,814 Z M29,820 L32.2795,820 L32.8565,821.73 L30.293,824.295 C29.9025,824.685 29.9025,825.315 30.293,825.705 L34.293,829.705 C34.6835,830.095 35.3175,830.095 35.707,829.705 L38.2705,827.145 L40,827.72 L40,831 C40,831.555 40.4485,832 41,832 L47,832 C47.5525,832 48,831.555 48,831 L48,827.72 L49.7305,827.145 L52.293,829.705 C52.6835,830.095 53.3175,830.095 53.707,829.705 L57.707,825.705 C58.0975,825.315 58.0975,824.685 57.707,824.295 L55.1445,821.73 L55.7205,820 L59,820 C59.5525,820 60,819.555 60,819 L60,813 C60,812.45 59.5525,812 59,812 L55.7205,812 L55.1445,810.27 L57.707,807.705 C58.0975,807.315 58.0975,806.685 57.707,806.295 L53.707,802.295 C53.3175,801.905 52.6835,801.905 52.293,802.295 L49.7305,804.855 L48,804.28 L48,801 C48,800.45 47.5525,800 47,800 L41,800 C40.4485,800 40,800.45 40,801 L40,804.28 L38.2705,804.855 L35.707,802.295 C35.3175,801.905 34.6835,801.905 34.293,802.295 L30.293,806.295 C29.9025,806.685 29.9025,807.315 30.293,807.705 L32.8565,810.27 L32.2795,812 L29,812 C28.4485,812 28,812.45 28,813 L28,819 C28,819.555 28.4485,820 29,820 L29,820 Z" id="123"></path>
        </g>
    </g>
</svg>