<?xml version="1.0" encoding="UTF-8"?>
<svg width="35px" height="35px" viewBox="0 0 35 35" version="1.1" xmlns="http://www.w3.org/2000/svg" xmlns:xlink="http://www.w3.org/1999/xlink">
    <!-- Generator: Sketch 42 (36781) - http://www.bohemiancoding.com/sketch -->
    <title>129</title>
    <desc>Created with Sketch.</desc>
    <defs></defs>
    <g id="Dashboard" stroke="none" stroke-width="1" fill="none" fill-rule="evenodd" opacity="0.75">
        <g id="Desktop-HD" transform="translate(-27.000000, -189.000000)" fill="#FFFFFF">
            <path d="M48.8783307,224 L55.4413435,224 C56.042953,224 56.5351789,223.513243 56.5351789,222.906165 L56.5351789,207.592468 L60.9105207,207.592468 C61.3480549,207.592468 61.7473049,207.324478 61.9168494,206.919759 C62.0863939,206.509571 61.9934178,206.039222 61.6816747,205.727479 L45.2741429,189.319947 C44.8475471,188.893351 44.1529616,188.893351 43.7263657,189.319947 L27.3188339,205.727479 C27.0070908,206.039222 26.9141148,206.509571 27.0836593,206.919759 C27.2532038,207.324478 27.6524537,207.592468 28.0954571,207.592468 L32.4707989,207.592468 L32.4707989,222.906165 C32.4707989,223.513243 32.9575557,224 33.5646343,224 L40.1276471,224 C40.7292566,224 41.2214825,223.513243 41.2214825,222.906165 L41.2214825,215.249316 L47.7844953,215.249316 L47.7844953,222.906165 C47.7844953,223.513243 48.2712521,224 48.8783307,224 L48.8783307,224 Z M40.1276471,213.061645 C39.5205684,213.061645 39.0338116,213.553871 39.0338116,214.155481 L39.0338116,221.812329 L34.6584698,221.812329 L34.6584698,206.498633 C34.6584698,205.897023 34.1662439,205.404797 33.5646343,205.404797 L30.7316005,205.404797 L44.5029889,191.638878 L58.2689081,205.404797 L55.4413435,205.404797 C54.8342648,205.404797 54.347508,205.897023 54.347508,206.498633 L54.347508,221.812329 L49.9721662,221.812329 L49.9721662,214.155481 C49.9721662,213.553871 49.4799402,213.061645 48.8783307,213.061645 L40.1276471,213.061645 L40.1276471,213.061645 Z" id="129"></path>
        </g>
    </g>
</svg>