<?xml version="1.0" encoding="UTF-8"?>
<svg width="31px" height="31px" viewBox="0 0 31 31" version="1.1" xmlns="http://www.w3.org/2000/svg" xmlns:xlink="http://www.w3.org/1999/xlink">
    <!-- Generator: Sketch 42 (36781) - http://www.bohemiancoding.com/sketch -->
    <title>130</title>
    <desc>Created with Sketch.</desc>
    <defs></defs>
    <g id="Dashboard" stroke="none" stroke-width="1" fill="none" fill-rule="evenodd" opacity="0.75">
        <g id="Desktop-HD" transform="translate(-28.000000, -864.000000)" fill="#FFFFFF">
            <path d="M43.5,864 C34.955625,864 28,870.955625 28,879.5 C28,888.044375 34.955625,895 43.5,895 C52.0492188,895 59,888.044375 59,879.5 C59,870.955625 52.0492188,864 43.5,864 L43.5,864 Z M56,874.896063 L50.8834646,874.896063 C50.7322835,874.896063 50.5858268,874.938583 50.4582677,875 C49.6929134,873.52126 48.4834646,872.307087 47,871.541732 C47.0661417,871.414173 47.103937,871.272441 47.103937,871.116535 L47.103937,866 C51.3653543,867.270866 54.7291339,870.63937 56,874.896063 L56,874.896063 Z M51,877 L56.848564,877 C56.9477807,877.655 57,878.32 57,879 C57,879.68 56.9477807,880.345 56.848564,881 L51,881 C51.1618799,880.36 51.2558747,879.69 51.2558747,879 C51.2558747,878.31 51.1618799,877.645 51,877 L51,877 Z M43,885 C39.6953846,885 37,882.309231 37,879 C37,875.690769 39.6953846,873 43,873 C46.3092308,873 49,875.690769 49,879 C49,882.309231 46.3092308,885 43,885 L43,885 Z M45,866.151304 L45,872 C44.36,871.833043 43.69,871.73913 43,871.73913 C42.31,871.73913 41.645,871.833043 41,872 L41,866.151304 C41.655,866.052174 42.325,866 43,866 C43.68,866 44.35,866.052174 45,866.151304 L45,866.151304 Z M38.8913956,866 L38.8913956,871.116535 C38.8913956,871.272441 38.933893,871.414173 39,871.541732 C37.5173137,872.307087 36.3084995,873.52126 35.5388248,875 C35.4113326,874.938583 35.2696747,874.896063 35.113851,874.896063 L30,874.896063 C31.2749213,870.63937 34.636936,867.270866 38.8913956,866 L38.8913956,866 Z M30,879 C30,878.32 30.0573913,877.655 30.1513043,877 L36,877 C35.8382609,877.645 35.7391304,878.31 35.7391304,879 C35.7391304,879.69 35.8382609,880.36 36,881 L30.1513043,881 C30.0573913,880.345 30,879.68 30,879 L30,879 Z M30,883.103937 L35.113851,883.103937 C35.2696747,883.103937 35.4113326,883.061417 35.5388248,883 C36.3084995,884.47874 37.5173137,885.692913 39,886.458268 C38.933893,886.585827 38.8913956,886.727559 38.8913956,886.883465 L38.8913956,892 C34.636936,890.729134 31.2749213,887.365354 30,883.103937 L30,883.103937 Z M41,892.848564 L41,887 C41.645,887.16188 42.31,887.255875 43,887.255875 C43.69,887.255875 44.36,887.16188 45,887 L45,892.848564 C44.35,892.947781 43.68,893 43,893 C42.325,893 41.655,892.947781 41,892.848564 L41,892.848564 Z M47.103937,892 L47.103937,886.883465 C47.103937,886.727559 47.0661417,886.585827 47,886.458268 C48.4834646,885.692913 49.6929134,884.47874 50.4582677,883 C50.5858268,883.061417 50.7322835,883.103937 50.8834646,883.103937 L56,883.103937 C54.7291339,887.365354 51.3653543,890.729134 47.103937,892 L47.103937,892 Z" id="130"></path>
        </g>
    </g>
</svg>