<?xml version="1.0" encoding="UTF-8"?>
<svg width="33px" height="30px" viewBox="0 0 33 30" version="1.1" xmlns="http://www.w3.org/2000/svg" xmlns:xlink="http://www.w3.org/1999/xlink">
    <!-- Generator: Sketch 42 (36781) - http://www.bohemiancoding.com/sketch -->
    <title>31</title>
    <desc>Created with Sketch.</desc>
    <defs></defs>
    <g id="Dashboard" stroke="none" stroke-width="1" fill="none" fill-rule="evenodd" opacity="0.75">
        <g id="Desktop-HD" transform="translate(-29.000000, -486.000000)" fill="#FFFFFF">
            <path d="M29,508.687854 C29,509.257629 29.4620072,509.719121 30.0312661,509.719121 L37.2501289,509.719121 L37.2501289,514.875451 C37.2501289,515.278676 37.4842263,515.64426 37.8503258,515.812356 C37.9879998,515.875779 38.1349552,515.906717 38.2808794,515.906717 C38.5227113,515.906717 38.761965,515.822153 38.9527493,515.658698 L45.8813106,509.719121 L60.9687339,509.719121 C61.5385084,509.719121 62,509.257629 62,508.687854 L62,487.031266 C62,486.462007 61.5385084,486 60.9687339,486 L30.0312661,486 C29.4620072,486 29,486.462007 29,487.031266 L29,508.687854 L29,508.687854 Z M31.0625322,488.062532 L59.9374678,488.062532 L59.9374678,507.656588 L45.5002578,507.656588 C45.2537852,507.656588 45.0160784,507.744762 44.8289036,507.905124 L39.3126611,512.633479 L39.3126611,508.687854 C39.3126611,508.118596 38.8506539,507.656588 38.281395,507.656588 L31.0625322,507.656588 L31.0625322,488.062532 L31.0625322,488.062532 Z M57.8749355,503.015891 C57.8749355,502.446632 57.413444,501.984625 56.8436694,501.984625 L34.1563306,501.984625 C33.586556,501.984625 33.1250645,502.446632 33.1250645,503.015891 C33.1250645,503.585665 33.586556,504.047157 34.1563306,504.047157 L56.8436694,504.047157 C57.413444,504.047157 57.8749355,503.585665 57.8749355,503.015891 L57.8749355,503.015891 Z M34.1563306,498.890826 L56.8436694,498.890826 C57.413444,498.890826 57.8749355,498.429335 57.8749355,497.85956 C57.8749355,497.290301 57.413444,496.828294 56.8436694,496.828294 L34.1563306,496.828294 C33.586556,496.828294 33.1250645,497.290301 33.1250645,497.85956 C33.1250645,498.429335 33.586556,498.890826 34.1563306,498.890826 L34.1563306,498.890826 Z M34.1563306,493.734496 L56.8436694,493.734496 C57.413444,493.734496 57.8749355,493.273004 57.8749355,492.70323 C57.8749355,492.133971 57.413444,491.671964 56.8436694,491.671964 L34.1563306,491.671964 C33.586556,491.671964 33.1250645,492.133971 33.1250645,492.70323 C33.1250645,493.273004 33.586556,493.734496 34.1563306,493.734496 L34.1563306,493.734496 Z" id="31"></path>
        </g>
    </g>
</svg>