<?xml version="1.0" encoding="UTF-8"?>
<svg width="28px" height="38px" viewBox="0 0 28 38" version="1.1" xmlns="http://www.w3.org/2000/svg" xmlns:xlink="http://www.w3.org/1999/xlink">
    <!-- Generator: Sketch 42 (36781) - http://www.bohemiancoding.com/sketch -->
    <title>45</title>
    <desc>Created with Sketch.</desc>
    <defs></defs>
    <g id="Dashboard" stroke="none" stroke-width="1" fill="none" fill-rule="evenodd" opacity="0.75">
        <g id="Desktop-HD" transform="translate(-30.000000, -408.000000)" fill="#FFFFFF">
            <path d="M51.1375237,411.500073 L49.7100773,408.64518 C49.5123232,408.250255 49.1080648,408 48.6664722,408 L39.3329444,408 C38.8913519,408 38.4870935,408.250255 38.2893394,408.64518 L36.861893,411.500073 L31.166691,411.500073 C30.5220942,411.500073 30,412.02275 30,412.666764 L30,444.16742 C30,444.812017 30.5220942,445.334111 31.166691,445.334111 L56.833309,445.334111 C57.4773224,445.334111 58,444.812017 58,444.16742 L58,412.666764 C58,412.02275 57.4773224,411.500073 56.833309,411.500073 L51.1375237,411.500073 L51.1375237,411.500073 Z M36.9995625,438.333965 L35.8328715,438.333965 C35.1888581,438.333965 34.6661805,438.856643 34.6661805,439.500656 C34.6661805,440.145253 35.1888581,440.667347 35.8328715,440.667347 L36.9995625,440.667347 C37.6441593,440.667347 38.1662535,440.145253 38.1662535,439.500656 C38.1662535,438.856643 37.6441593,438.333965 36.9995625,438.333965 L36.9995625,438.333965 Z M52.1665451,438.333965 L41.6663264,438.333965 C41.022313,438.333965 40.4996354,438.856643 40.4996354,439.500656 C40.4996354,440.145253 41.022313,440.667347 41.6663264,440.667347 L52.1665451,440.667347 C52.8111419,440.667347 53.3332361,440.145253 53.3332361,439.500656 C53.3332361,438.856643 52.8111419,438.333965 52.1665451,438.333965 L52.1665451,438.333965 Z M52.1665451,432.50051 L41.6663264,432.50051 C41.022313,432.50051 40.4996354,433.023188 40.4996354,433.667201 C40.4996354,434.311798 41.022313,434.833892 41.6663264,434.833892 L52.1665451,434.833892 C52.8111419,434.833892 53.3332361,434.311798 53.3332361,433.667201 C53.3332361,433.023188 52.8111419,432.50051 52.1665451,432.50051 L52.1665451,432.50051 Z M36.9995625,432.50051 L35.8328715,432.50051 C35.1888581,432.50051 34.6661805,433.023188 34.6661805,433.667201 C34.6661805,434.311798 35.1888581,434.833892 35.8328715,434.833892 L36.9995625,434.833892 C37.6441593,434.833892 38.1662535,434.311798 38.1662535,433.667201 C38.1662535,433.023188 37.6441593,432.50051 36.9995625,432.50051 L36.9995625,432.50051 Z M36.9995625,426.667056 L35.8328715,426.667056 C35.1888581,426.667056 34.6661805,427.189733 34.6661805,427.833747 C34.6661805,428.478343 35.1888581,429.000438 35.8328715,429.000438 L36.9995625,429.000438 C37.6441593,429.000438 38.1662535,428.478343 38.1662535,427.833747 C38.1662535,427.189733 37.6441593,426.667056 36.9995625,426.667056 L36.9995625,426.667056 Z M52.1665451,426.667056 L41.6663264,426.667056 C41.022313,426.667056 40.4996354,427.189733 40.4996354,427.833747 C40.4996354,428.478343 41.022313,429.000438 41.6663264,429.000438 L52.1665451,429.000438 C52.8111419,429.000438 53.3332361,428.478343 53.3332361,427.833747 C53.3332361,427.189733 52.8111419,426.667056 52.1665451,426.667056 L52.1665451,426.667056 Z M52.1665451,420.833601 L41.6663264,420.833601 C41.022313,420.833601 40.4996354,421.356278 40.4996354,422.000292 C40.4996354,422.644888 41.022313,423.166983 41.6663264,423.166983 L52.1665451,423.166983 C52.8111419,423.166983 53.3332361,422.644888 53.3332361,422.000292 C53.3332361,421.356278 52.8111419,420.833601 52.1665451,420.833601 L52.1665451,420.833601 Z M36.9995625,420.833601 L35.8328715,420.833601 C35.1888581,420.833601 34.6661805,421.356278 34.6661805,422.000292 C34.6661805,422.644888 35.1888581,423.166983 35.8328715,423.166983 L36.9995625,423.166983 C37.6441593,423.166983 38.1662535,422.644888 38.1662535,422.000292 C38.1662535,421.356278 37.6441593,420.833601 36.9995625,420.833601 L36.9995625,420.833601 Z M55.6666181,443.000729 L32.3327986,443.000729 L32.3327986,413.833455 L35.695202,413.833455 L34.7892664,415.645326 C34.6090127,416.007 34.6282631,416.436342 34.8406008,416.780516 C35.0535219,417.124107 35.4286131,417.333528 35.8328715,417.333528 L52.178212,417.333528 C52.8228088,417.333528 53.344903,416.811434 53.344903,416.166837 C53.344903,415.922998 53.2702348,415.697244 53.1424821,415.50999 L52.3042147,413.833455 L55.6666181,413.833455 L55.6666181,443.000729 L55.6666181,443.000729 Z M40.0539595,410.333382 L47.9454572,410.333382 L50.2788391,415.000146 L37.7205775,415.000146 L40.0539595,410.333382 L40.0539595,410.333382 Z" id="45"></path>
        </g>
    </g>
</svg>