<?xml version="1.0" encoding="UTF-8"?>
<svg width="37px" height="33px" viewBox="0 0 37 33" version="1.1" xmlns="http://www.w3.org/2000/svg" xmlns:xlink="http://www.w3.org/1999/xlink">
    <!-- Generator: Sketch 42 (36781) - http://www.bohemiancoding.com/sketch -->
    <title>58</title>
    <desc>Created with Sketch.</desc>
    <defs></defs>
    <g id="Dashboard" stroke="none" stroke-width="1" fill="none" fill-rule="evenodd" opacity="0.75">
        <g id="Desktop-HD" transform="translate(-25.000000, -927.000000)" fill="#FFFFFF">
            <path d="M27.3708837,950.916666 L25.0582514,957.854563 C24.9426198,958.207818 25.0004356,958.595183 25.2201356,958.896404 C25.4340541,959.198781 25.7867306,959.376853 26.1567518,959.376853 L60.8462373,959.376853 C61.2162585,959.376853 61.5631534,959.198781 61.7828535,958.896404 C61.9967719,958.595183 62.0603693,958.207818 61.9389561,957.854563 L59.6263238,950.916666 C59.5049106,950.555317 59.2158315,950.276067 58.8515919,950.170842 L50.7573786,947.85821 C50.4740811,947.778424 50.1792205,947.806753 49.9190494,947.935683 L43.5014945,951.146195 L37.0781581,947.935683 C36.817987,947.806753 36.5231264,947.778424 36.2456105,947.85821 L28.1513972,950.170842 C27.781376,950.276067 27.4922969,950.555317 27.3708837,950.916666 L27.3708837,950.916666 Z M36.4479658,950.205531 L42.9811523,953.473281 C43.3049208,953.636322 43.6922867,953.636322 44.0160552,953.473281 L50.5492417,950.205531 L57.6258968,952.226772 L59.2389578,957.064221 L27.7582497,957.064221 L29.3713107,952.226772 L36.4479658,950.205531 L36.4479658,950.205531 Z M43.5014945,948.970008 C48.282862,948.970008 52.1738659,944.042366 52.1738659,937.985004 C52.1738659,931.92822 48.282862,927 43.5014945,927 C38.7201271,927 34.8291231,931.92822 34.8291231,937.985004 C34.8291231,944.042366 38.7201271,948.970008 43.5014945,948.970008 L43.5014945,948.970008 Z M43.5014945,929.312632 C46.9473168,929.312632 49.8612336,933.284 49.8612336,937.985004 C49.8612336,942.686007 46.9473168,946.657375 43.5014945,946.657375 C40.0498907,946.657375 37.1417555,942.686007 37.1417555,937.985004 C37.1417555,933.284 40.0498907,929.312632 43.5014945,929.312632 L43.5014945,929.312632 Z" id="58"></path>
        </g>
    </g>
</svg>