<?xml version="1.0" encoding="UTF-8"?>
<svg width="36px" height="31px" viewBox="0 0 36 31" version="1.1" xmlns="http://www.w3.org/2000/svg" xmlns:xlink="http://www.w3.org/1999/xlink">
    <!-- Generator: Sketch 42 (36781) - http://www.bohemiancoding.com/sketch -->
    <title>66</title>
    <desc>Created with Sketch.</desc>
    <defs></defs>
    <g id="Dashboard" stroke="none" stroke-width="1" fill="none" fill-rule="evenodd" opacity="0.75">
        <g id="Desktop-HD" transform="translate(-28.000000, -337.000000)" fill="#FFFFFF">
            <path d="M56.7851607,356.928571 L52.3565893,356.928571 C51.7454464,356.928571 51.2494464,357.424571 51.2494464,358.035714 L51.2494464,362.464286 C51.2494464,363.075982 51.7454464,363.571429 52.3565893,363.571429 L56.7851607,363.571429 C57.3968571,363.571429 57.8923036,363.075982 57.8923036,362.464286 L57.8923036,358.035714 C57.8923036,357.424571 57.3968571,356.928571 56.7851607,356.928571 L56.7851607,356.928571 Z M39.0714286,356.928571 L34.6428571,356.928571 C34.0311607,356.928571 33.5357143,357.424571 33.5357143,358.035714 L33.5357143,362.464286 C33.5357143,363.075982 34.0311607,363.571429 34.6428571,363.571429 L39.0714286,363.571429 C39.6825714,363.571429 40.1785714,363.075982 40.1785714,362.464286 L40.1785714,358.035714 C40.1785714,357.424571 39.6825714,356.928571 39.0714286,356.928571 L39.0714286,356.928571 Z M47.9280179,356.928571 L43.4994464,356.928571 C42.8883036,356.928571 42.3928571,357.424571 42.3928571,358.035714 L42.3928571,362.464286 C42.3928571,363.075982 42.8883036,363.571429 43.4994464,363.571429 L47.9280179,363.571429 C48.5397143,363.571429 49.0351607,363.075982 49.0351607,362.464286 L49.0351607,358.035714 C49.0351607,357.424571 48.5397143,356.928571 47.9280179,356.928571 L47.9280179,356.928571 Z M55.6780179,361.357143 L53.4637321,361.357143 L53.4637321,359.142857 L55.6780179,359.142857 L55.6780179,361.357143 L55.6780179,361.357143 Z M37.9642857,361.357143 L35.75,361.357143 L35.75,359.142857 L37.9642857,359.142857 L37.9642857,361.357143 L37.9642857,361.357143 Z M46.820875,361.357143 L44.6065893,361.357143 L44.6065893,359.142857 L46.820875,359.142857 L46.820875,361.357143 L46.820875,361.357143 Z M47.9280179,348.071429 L43.4994464,348.071429 C42.8883036,348.071429 42.3928571,348.567429 42.3928571,349.178571 L42.3928571,353.607143 C42.3928571,354.218839 42.8883036,354.714286 43.4994464,354.714286 L47.9280179,354.714286 C48.5397143,354.714286 49.0351607,354.218839 49.0351607,353.607143 L49.0351607,349.178571 C49.0351607,348.567429 48.5397143,348.071429 47.9280179,348.071429 L47.9280179,348.071429 Z M39.0714286,348.071429 L34.6428571,348.071429 C34.0311607,348.071429 33.5357143,348.567429 33.5357143,349.178571 L33.5357143,353.607143 C33.5357143,354.218839 34.0311607,354.714286 34.6428571,354.714286 L39.0714286,354.714286 C39.6825714,354.714286 40.1785714,354.218839 40.1785714,353.607143 L40.1785714,349.178571 C40.1785714,348.567429 39.6825714,348.071429 39.0714286,348.071429 L39.0714286,348.071429 Z M56.7851607,348.071429 L52.3565893,348.071429 C51.7454464,348.071429 51.2494464,348.567429 51.2494464,349.178571 L51.2494464,353.607143 C51.2494464,354.218839 51.7454464,354.714286 52.3565893,354.714286 L56.7851607,354.714286 C57.3968571,354.714286 57.8923036,354.218839 57.8923036,353.607143 L57.8923036,349.178571 C57.8923036,348.567429 57.3968571,348.071429 56.7851607,348.071429 L56.7851607,348.071429 Z M46.820875,352.5 L44.6065893,352.5 L44.6065893,350.285714 L46.820875,350.285714 L46.820875,352.5 L46.820875,352.5 Z M37.9642857,352.5 L35.75,352.5 L35.75,350.285714 L37.9642857,350.285714 L37.9642857,352.5 L37.9642857,352.5 Z M55.6780179,352.5 L53.4637321,352.5 L53.4637321,350.285714 L55.6780179,350.285714 L55.6780179,352.5 L55.6780179,352.5 Z M61.2137321,365.785714 L30.2142857,365.785714 L30.2142857,341.428571 L33.5357143,341.428571 L33.5357143,342.535714 C33.5357143,343.147411 34.0311607,343.642857 34.6428571,343.642857 L37.9642857,343.642857 C38.5754286,343.642857 39.0714286,343.147411 39.0714286,342.535714 L39.0714286,341.428571 L52.3565893,341.428571 L52.3565893,342.535714 C52.3565893,343.147411 52.8525893,343.642857 53.4637321,343.642857 L56.7851607,343.642857 C57.3968571,343.642857 57.8923036,343.147411 57.8923036,342.535714 L57.8923036,341.428571 L61.2137321,341.428571 L61.2137321,365.785714 L61.2137321,365.785714 Z M54.570875,339.214286 L55.6780179,339.214286 L55.6780179,341.428571 L54.570875,341.428571 L54.570875,339.214286 L54.570875,339.214286 Z M35.75,339.214286 L36.8571429,339.214286 L36.8571429,341.428571 L35.75,341.428571 L35.75,339.214286 L35.75,339.214286 Z M62.320875,339.214286 L57.8923036,339.214286 L57.8923036,338.107143 C57.8923036,337.496 57.3968571,337 56.7851607,337 L53.4637321,337 C52.8525893,337 52.3565893,337.496 52.3565893,338.107143 L52.3565893,339.214286 L39.0714286,339.214286 L39.0714286,338.107143 C39.0714286,337.496 38.5754286,337 37.9642857,337 L34.6428571,337 C34.0311607,337 33.5357143,337.496 33.5357143,338.107143 L33.5357143,339.214286 L29.1071429,339.214286 C28.4954464,339.214286 28,339.710286 28,340.321429 L28,366.892857 C28,367.504554 28.4954464,368 29.1071429,368 L62.320875,368 C62.9320179,368 63.4280179,367.504554 63.4280179,366.892857 L63.4280179,340.321429 C63.4280179,339.710286 62.9320179,339.214286 62.320875,339.214286 L62.320875,339.214286 Z" id="66"></path>
        </g>
    </g>
</svg>