<?xml version="1.0" encoding="UTF-8"?>
<svg width="27px" height="38px" viewBox="0 0 27 38" version="1.1" xmlns="http://www.w3.org/2000/svg" xmlns:xlink="http://www.w3.org/1999/xlink">
    <!-- Generator: Sketch 42 (36781) - http://www.bohemiancoding.com/sketch -->
    <title>17</title>
    <desc>Created with Sketch.</desc>
    <defs></defs>
    <g id="Dashboard" stroke="none" stroke-width="1" fill="none" fill-rule="evenodd" opacity="0.25">
        <g transform="translate(-112.000000, -86.000000)" id="pane-client" fill="#1F253D">
            <g transform="translate(90.000000, 0.000000)">
                <g id="info" transform="translate(22.000000, 16.000000)">
                    <path d="M13.4796947,107.565294 C13.8172007,107.565294 14.1370976,107.4209 14.3601451,107.167918 C14.8778499,106.580951 27.0421518,92.6804008 26.9998901,83.5143258 C26.966433,76.062781 20.9101086,70 13.5002386,70 C6.05573744,70 0,76.0651289 0,83.5201954 C0,92.6809877 12.0827135,106.578016 12.5974835,107.164983 C12.8199439,107.419139 13.1245797,107.557077 13.4796947,107.565294 L13.4796947,107.565294 Z M13.5002386,72.3478676 C19.6211293,72.3478676 24.6238482,77.3623257 24.6520226,83.5254781 C24.6837188,90.4657747 16.2695484,101.206095 13.4826295,104.571176 C10.7097979,101.203747 2.34786757,90.4687095 2.34786757,83.5201954 C2.34786757,77.3593909 7.35058641,72.3478676 13.5002386,72.3478676 L13.5002386,72.3478676 Z M18.1953867,83.4996516 C18.1953867,80.9105406 16.0893495,78.8039164 13.5002386,78.8039164 C10.9111276,78.8039164 8.8045034,80.9105406 8.8045034,83.4996516 C8.8045034,86.0893495 10.9111276,88.1953867 13.5002386,88.1953867 C16.0893495,88.1953867 18.1953867,86.0893495 18.1953867,83.4996516 L18.1953867,83.4996516 Z M11.152371,83.4996516 C11.152371,82.2053896 12.2053896,81.151784 13.5002386,81.151784 C14.7950875,81.151784 15.8481061,82.2053896 15.8481061,83.4996516 C15.8481061,84.7945006 14.7950875,85.8475192 13.5002386,85.8475192 C12.2053896,85.8475192 11.152371,84.7945006 11.152371,83.4996516 L11.152371,83.4996516 Z" id="17"></path>
                </g>
            </g>
        </g>
    </g>
</svg>